<svg width="12" height="12" viewBox="0 0 12 12" fill="none" xmlns="http://www.w3.org/2000/svg">
<path fill-rule="evenodd" clip-rule="evenodd" d="M0 6C0 2.6865 2.6865 0 6 0C9.3135 0 12 2.6865 12 6C12 9.3135 9.3135 12 6 12C2.6865 12 0 9.3135 0 6ZM6.67501 7.20115H5.39337V7.11654C5.39992 5.93719 5.68836 5.76447 6.21774 5.44746C6.27369 5.41396 6.33232 5.37885 6.3936 5.34077C6.83188 5.06548 7.16874 4.71775 7.16874 4.21065C7.16874 3.64197 6.72322 3.27251 6.16903 3.27251C5.6583 3.27251 5.1748 3.51123 5.1422 4.1922H3.78223C3.81845 2.81578 4.90852 2.1 6.17627 2.1C7.55994 2.1 8.51256 2.96825 8.51256 4.19254C8.51256 5.02202 8.09601 5.56534 7.42954 5.96378C7.37879 5.99491 7.33125 6.02353 7.28673 6.05034C6.81326 6.33539 6.68163 6.41464 6.67501 7.11654V7.20115ZM6.77747 9.00841C6.77384 9.45031 6.40801 9.80528 5.98059 9.80528C5.53869 9.80528 5.18009 9.45031 5.18372 9.00841C5.18009 8.57375 5.53869 8.21877 5.98059 8.21877C6.40801 8.21877 6.77384 8.57375 6.77747 9.00841Z" fill="#5C5F62"/>
</svg>
